<svg height="589pt" viewBox="-18 -18 589 589.33178" width="589pt" xmlns="http://www.w3.org/2000/svg"><path d="m341.632812 445.882812c-.988281-.058593-1.972656-.195312-2.9375-.410156v23.109375c0 2.246094 1.046876 3.492188 2.9375 3.492188h148.789063c1.886719 0 2.9375-1.246094 2.9375-3.492188v-23.109375c-.964844.214844-1.949219.351563-2.9375.410156zm0 0"/><path d="m415.738281 258.859375c8.683594 0 17.351563.71875 25.910157 2.152344.109374-2.621094.175781-5.242188.175781-7.859375 0-103.992188-84.597657-188.585938-188.585938-188.585938s-188.585937 84.601563-188.585937 188.585938c0 103.988281 84.597656 188.585937 188.585937 188.585937 2.621094 0 5.238281-.066406 7.859375-.175781-7.617187-45.476562 5.171875-92.003906 34.96875-127.199219 29.785156-35.199219 73.558594-55.5 119.671875-55.503906zm-173.539062 21.132813c-5.511719 0-9.523438-4.761719-9.523438-10.273438v-103.445312c0-5.511719 4.46875-9.980469 9.980469-9.980469s9.976562 4.46875 9.976562 9.980469v93.765624h65.40625c5.515626 0 9.976563 4.464844 9.976563 9.976563s-4.460937 9.976563-9.976563 9.976563zm0 0"/><path d="m439.726562 348.480469c0-2.246094-1.035156-3.628907-2.925781-3.628907h-41.546875c-1.890625 0-2.925781 1.378907-2.925781 3.628907v1.359375h47.398437zm0 0"/><path d="m552.578125 415.660156c0-75.578125-61.265625-136.84375-136.839844-136.84375s-136.84375 61.265625-136.84375 136.84375c0 75.574219 61.269531 136.839844 136.84375 136.839844 75.542969-.085938 136.757813-61.304688 136.839844-136.839844zm-62.15625 76.371094h-148.789063c-12.894531 0-22.894531-10.203125-22.894531-23.449219v-95.039062c0-13.25 10-23.695313 22.894531-23.695313h30.738282v-1.359375c0-13.253906 9.980468-23.589843 22.882812-23.589843h41.546875c12.902344-.003907 22.878907 10.332031 22.878907 23.582031v1.359375h30.742187c12.894531 0 22.890625 10.453125 22.890625 23.703125v95.039062c0 13.246094-9.996094 23.449219-22.890625 23.449219zm0 0"/><path d="m490.421875 369.796875h-148.789063c-1.890624 0-2.9375 1.496094-2.9375 3.742187v48.179688c0 2.246094 1.046876 4.195312 2.9375 4.195312h148.789063c1.886719 0 2.9375-1.949218 2.9375-4.195312v-48.175781c0-2.25-1.050781-3.746094-2.9375-3.746094zm-60.675781 37.417969h-27.4375c-5.511719 0-9.980469-4.46875-9.980469-9.976563 0-5.511719 4.46875-9.980469 9.980469-9.980469h27.4375c5.511718 0 9.980468 4.46875 9.980468 9.980469 0 5.507813-4.46875 9.976563-9.980468 9.976563zm0 0"/><path d="m253.234375 506.304688c11.078125-.003907 22.144531-.726563 33.128906-2.164063-9.023437-13.136719-15.980469-27.585937-20.632812-42.824219-4.15625.25-8.332031.378906-12.492188.378906-114.988281 0-208.542969-93.550781-208.542969-208.542968 0-114.988282 93.554688-208.542969 208.542969-208.542969 114.992188 0 208.546875 93.554687 208.546875 208.542969 0 4.15625-.140625 8.332031-.382812 12.492187 15.238281 4.652344 29.683594 11.617188 42.824218 20.640625 1.4375-10.988281 2.160157-22.054687 2.164063-33.132812 0-139.585938-113.566406-253.152344-253.152344-253.152344-139.59375 0-253.1523435 113.566406-253.1523435 253.152344 0 139.59375 113.5585935 253.152344 253.1484375 253.152344zm0 0"/></svg>